<?xml version="1.0" standalone="no"?>
<!DOCTYPE svg PUBLIC "-//W3C//DTD SVG 20010904//EN"
 "http://www.w3.org/TR/2001/REC-SVG-20010904/DTD/svg10.dtd">
<svg version="1.0" xmlns="http://www.w3.org/2000/svg"
 width="225.000000pt" height="225.000000pt" viewBox="0 0 225.000000 225.000000"
 preserveAspectRatio="xMidYMid meet">

<g transform="translate(0.000000,225.000000) scale(0.100000,-0.100000)"
fill="#000000" stroke="none">
<path d="M905 2200 c-224 -51 -355 -117 -508 -253 -62 -55 -176 -183 -187
-210 -3 -7 -17 -31 -32 -54 -16 -24 -28 -45 -28 -48 0 -4 -12 -32 -26 -63 -84
-182 -119 -494 -75 -673 40 -162 77 -252 150 -364 25 -38 48 -72 51 -75 3 -3
25 -29 49 -58 36 -44 105 -108 191 -175 89 -71 250 -139 422 -177 152 -34 421
-23 500 20 10 6 25 10 33 10 39 0 233 83 255 109 3 3 25 20 50 36 85 57 174
141 233 219 45 60 47 74 7 68 -16 -2 -46 -1 -65 2 -28 6 -35 12 -35 29 0 29
44 48 130 56 l65 6 29 60 c54 112 65 143 87 250 38 188 21 416 -45 596 -30 82
-100 213 -133 247 -7 7 -13 18 -13 23 0 10 -213 229 -222 229 -3 0 -29 15 -56
34 -71 48 -207 111 -277 129 -161 42 -194 47 -331 46 -97 0 -163 -6 -219 -19z
m-283 -819 c9 -11 24 -31 33 -44 9 -15 40 -33 77 -47 108 -39 232 -26 293 31
20 19 42 29 60 29 53 0 60 -12 57 -91 -2 -59 -6 -75 -24 -91 -11 -10 -25 -18
-29 -18 -5 0 -16 -17 -24 -37 -14 -33 -14 -40 1 -71 19 -41 35 -146 23 -150
-5 -2 -9 -28 -9 -59 0 -40 -5 -62 -20 -80 -17 -22 -20 -40 -19 -129 l1 -103
86 -42 c48 -22 95 -45 104 -50 10 -5 25 -9 33 -9 8 0 15 -4 15 -9 0 -6 21 -11
48 -13 45 -3 47 -4 47 -33 0 -22 -4 -29 -15 -26 -8 2 -44 10 -80 17 -36 7 -85
18 -110 24 -65 16 -153 29 -161 25 -4 -3 -20 0 -35 5 -16 5 -81 14 -144 19
-63 6 -135 17 -159 25 -24 9 -54 16 -66 16 -15 0 -25 8 -29 23 -9 36 -7 65 7
74 6 4 17 17 23 28 10 17 20 20 75 17 35 -2 84 -7 108 -12 34 -6 47 -4 60 9
10 9 26 21 37 27 10 6 20 23 22 38 3 26 2 26 -58 26 -60 0 -130 20 -130 38 0
5 -16 26 -35 47 -19 21 -37 52 -40 69 -4 17 -14 58 -24 91 -10 33 -24 88 -32
123 -7 34 -17 62 -21 62 -4 0 -8 10 -8 23 0 12 -13 41 -29 65 -32 46 -32 62 2
129 28 55 61 67 89 34z"/>
<path d="M697 1079 c-20 -12 -22 -42 -3 -58 19 -16 46 -3 46 24 0 30 -20 46
-43 34z"/>
<path d="M1020 1050 c-12 -7 -12 -12 -3 -21 15 -15 26 -7 21 15 -2 11 -7 13
-18 6z"/>
</g>
</svg>
